<svg xmlns="http://www.w3.org/2000/svg" fill="none" viewBox="0 0 520 520"><rect width="520" height="520" fill="#fff" rx="260"/><path fill="#FBBC05" fill-rule="evenodd" d="M146 260c0-13 2-25 6-37l-67-52a200 200 0 0 0 0 178l67-52c-4-12-6-24-6-37Z" clip-rule="evenodd"/><path fill="#EA4335" fill-rule="evenodd" d="M265 142c28 0 53 10 73 26l59-58a200 200 0 0 0-312 61l67 52c16-47 60-81 113-81Z" clip-rule="evenodd"/><path fill="#34A853" fill-rule="evenodd" d="M265 378c-53 0-97-34-113-81l-67 52a200 200 0 0 0 310 61l-64-49c-18 11-41 17-66 17Z" clip-rule="evenodd"/><path fill="#4285F4" fill-rule="evenodd" d="M456 260c0-12-2-25-5-36H265v77h107c-5 26-20 47-41 60l64 49c37-34 61-85 61-150Z" clip-rule="evenodd"/></svg>